<?xml version="1.0" encoding="UTF-8"?>
<svg xmlns="http://www.w3.org/2000/svg" viewBox="0 0 1498.224 742.56" version="1.1" preserveAspectRatio="none">
  <desc>Produce by Acme CAD Converter</desc>
<path d="M415.4 274.64L418.18 301.54"
fill="none" stroke="black" stroke-width="0.5"/>
<path d="M418.18 301.54L396.25 303.66"
fill="none" stroke="black" stroke-width="0.5"/>
<path d="M396.25 303.66L393.6 276.62"
fill="none" stroke="black" stroke-width="0.5"/>
<path d="M393.6 276.62L415.4 274.64"
fill="none" stroke="black" stroke-width="0.5"/>
<path d="M361.44 191.87L361.44 207.99Z"
fill="none" stroke="black" stroke-width="0.5"/>
<path d="M361.44 207.99L343.28 207.99"
fill="none" stroke="black" stroke-width="0.5"/>
<path d="M343.28 207.99L343.28 196.59Z"
fill="none" stroke="black" stroke-width="0.5"/>
<path d="M343.28 196.59L349.06 196.59"
fill="none" stroke="black" stroke-width="0.5"/>
<path d="M349.06 196.59L350.41 195.62"
fill="none" stroke="black" stroke-width="0.5"/>
<path d="M350.41 195.62L353.56 195.62"
fill="none" stroke="black" stroke-width="0.5"/>
<path d="M353.56 195.62L353.56 191.64Z"
fill="none" stroke="black" stroke-width="0.5"/>
<path d="M353.56 191.64L361.44 191.87"
fill="none" stroke="black" stroke-width="0.5"/>
<path d="M246.46 203.7L248.35 188.27"
fill="none" stroke="black" stroke-width="0.5"/>
<path d="M248.35 188.27L254.55 189.37"
fill="none" stroke="black" stroke-width="0.5"/>
<path d="M254.55 189.37L255.53 183.45"
fill="none" stroke="black" stroke-width="0.5"/>
<path d="M255.53 183.45L263.03 184.36"
fill="none" stroke="black" stroke-width="0.5"/>
<path d="M263.03 184.36L263.03 185.53Z"
fill="none" stroke="black" stroke-width="0.5"/>
<path d="M263.03 185.53L277.78 187.56"
fill="none" stroke="black" stroke-width="0.5"/>
<path d="M277.78 187.56L275.12 207.49"
fill="none" stroke="black" stroke-width="0.5"/>
<path d="M275.12 207.49L269.5 206.61"
fill="none" stroke="black" stroke-width="0.5"/>
<path d="M269.5 206.61L268.94 210.18"
fill="none" stroke="black" stroke-width="0.5"/>
<path d="M268.94 210.18L263.72 209.54"
fill="none" stroke="black" stroke-width="0.5"/>
<path d="M263.72 209.54L263.25 212.23"
fill="none" stroke="black" stroke-width="0.5"/>
<path d="M263.25 212.23L257.23 211.33"
fill="none" stroke="black" stroke-width="0.5"/>
<path d="M257.23 211.33L257.7 208.68"
fill="none" stroke="black" stroke-width="0.5"/>
<path d="M257.7 208.68L252.53 207.87"
fill="none" stroke="black" stroke-width="0.5"/>
<path d="M252.53 207.87L253 204.71"
fill="none" stroke="black" stroke-width="0.5"/>
<path d="M253 204.71L246.46 203.7"
fill="none" stroke="black" stroke-width="0.5"/>
<path d="M310.07 197.08L322.74 197.08"
fill="none" stroke="black" stroke-width="0.5"/>
<path d="M322.74 197.08L322.74 208.04Z"
fill="none" stroke="black" stroke-width="0.5"/>
<path d="M322.74 208.04L310.21 208.04"
fill="none" stroke="black" stroke-width="0.5"/>
<path d="M310.21 208.04L310.07 197.08"
fill="none" stroke="black" stroke-width="0.5"/>
<path d="M330.76 267.42L321.51 267.06"
fill="none" stroke="black" stroke-width="0.5"/>
<path d="M321.51 267.06L321.51 273.39Z"
fill="none" stroke="black" stroke-width="0.5"/>
<path d="M321.51 273.39L320.14 274.78"
fill="none" stroke="black" stroke-width="0.5"/>
<path d="M320.14 274.78L320.14 276.59Z"
fill="none" stroke="black" stroke-width="0.5"/>
<path d="M320.14 276.59L321.23 278.11"
fill="none" stroke="black" stroke-width="0.5"/>
<path d="M321.23 278.11L321.23 279.77Z"
fill="none" stroke="black" stroke-width="0.5"/>
<path d="M321.23 279.77L330.57 280.24"
fill="none" stroke="black" stroke-width="0.5"/>
<path d="M330.57 280.24L330.76 267.42"
fill="none" stroke="black" stroke-width="0.5"/>
<path d="M300.41 268.8L309.7 269.11"
fill="none" stroke="black" stroke-width="0.5"/>
<path d="M309.7 269.11L309.13 291.08"
fill="none" stroke="black" stroke-width="0.5"/>
<path d="M309.13 291.08L299.66 290.73"
fill="none" stroke="black" stroke-width="0.5"/>
<path d="M299.66 290.73L299.66 284.37Z"
fill="none" stroke="black" stroke-width="0.5"/>
<path d="M299.66 284.37L298.85 284.37"
fill="none" stroke="black" stroke-width="0.5"/>
<path d="M298.85 284.37L298.85 282.14Z"
fill="none" stroke="black" stroke-width="0.5"/>
<path d="M298.85 282.14L299.82 281.97"
fill="none" stroke="black" stroke-width="0.5"/>
<path d="M299.82 281.97L299.82 276.93Z"
fill="none" stroke="black" stroke-width="0.5"/>
<path d="M299.82 276.93L300.28 276.93"
fill="none" stroke="black" stroke-width="0.5"/>
<path d="M300.28 276.93L300.41 268.8"
fill="none" stroke="black" stroke-width="0.5"/>
<path d="M362.42 265.07L362.42 275.57Z"
fill="none" stroke="black" stroke-width="0.5"/>
<path d="M362.42 275.57L359.66 275.57"
fill="none" stroke="black" stroke-width="0.5"/>
<path d="M359.66 275.57L359.66 286.06Z"
fill="none" stroke="black" stroke-width="0.5"/>
<path d="M359.66 286.06L353.14 286.06"
fill="none" stroke="black" stroke-width="0.5"/>
<path d="M353.14 286.06L353.14 273.53Z"
fill="none" stroke="black" stroke-width="0.5"/>
<path d="M353.14 273.53L355.18 273.53"
fill="none" stroke="black" stroke-width="0.5"/>
<path d="M355.18 273.53L355.18 264.99Z"
fill="none" stroke="black" stroke-width="0.5"/>
<path d="M355.18 264.99L362.42 265.07"
fill="none" stroke="black" stroke-width="0.5"/>
<path d="M391.31 210.16L399.31 210.16"
fill="none" stroke="black" stroke-width="0.5"/>
<path d="M399.31 210.16L399.31 220.7Z"
fill="none" stroke="black" stroke-width="0.5"/>
<path d="M399.31 220.7L391.36 220.7"
fill="none" stroke="black" stroke-width="0.5"/>
<path d="M391.36 220.7L391.31 210.16"
fill="none" stroke="black" stroke-width="0.5"/>
<path d="M226.05 281.1L228.28 270.19"
fill="none" stroke="black" stroke-width="0.5"/>
<path d="M228.28 270.19L236.41 271.97"
fill="none" stroke="black" stroke-width="0.5"/>
<path d="M236.41 271.97L234.96 278.98"
fill="none" stroke="black" stroke-width="0.5"/>
<path d="M234.96 278.98L236.84 279.41"
fill="none" stroke="black" stroke-width="0.5"/>
<path d="M236.84 279.41L235.81 283.42"
fill="none" stroke="black" stroke-width="0.5"/>
<path d="M235.81 283.42L234.2 283.02"
fill="none" stroke="black" stroke-width="0.5"/>
<path d="M234.2 283.02L232.27 293.06"
fill="none" stroke="black" stroke-width="0.5"/>
<path d="M232.27 293.06L235.25 293.81"
fill="none" stroke="black" stroke-width="0.5"/>
<path d="M235.25 293.81L232.87 305.08"
fill="none" stroke="black" stroke-width="0.5"/>
<path d="M232.87 305.08L224.3 303.26"
fill="none" stroke="black" stroke-width="0.5"/>
<path d="M224.3 303.26L228.43 281.82"
fill="none" stroke="black" stroke-width="0.5"/>
<path d="M228.43 281.82L226.05 281.1"
fill="none" stroke="black" stroke-width="0.5"/>
<path d="M102.89 124.64L646.36 124.64"
fill="none" stroke="black" stroke-width="0.5"/>
<path d="M646.36 124.64L646.36 380.49Z"
fill="none" stroke="black" stroke-width="0.5"/>
<path d="M646.36 380.49L102.89 380.49"
fill="none" stroke="black" stroke-width="0.5"/>
<path d="M102.89 380.49L102.89 124.64Z"
fill="none" stroke="black" stroke-width="0.5"/>
</svg>
